<svg id="visual" viewBox="0 0 1440 900" width="1440" height="900" xmlns="http://www.w3.org/2000/svg" xmlns:xlink="http://www.w3.org/1999/xlink" version="1.1"><rect x="0" y="0" width="1440" height="900" fill="#ffffff"></rect><defs><linearGradient id="grad1_0" x1="37.5%" y1="0%" x2="100%" y2="100%"><stop offset="17.999999999999996%" stop-color="#f56b06" stop-opacity="1"></stop><stop offset="82%" stop-color="#f56b06" stop-opacity="1"></stop></linearGradient></defs><defs><linearGradient id="grad1_1" x1="37.5%" y1="0%" x2="100%" y2="100%"><stop offset="17.999999999999996%" stop-color="#f56b06" stop-opacity="1"></stop><stop offset="82%" stop-color="#fc8137" stop-opacity="1"></stop></linearGradient></defs><defs><linearGradient id="grad1_2" x1="37.5%" y1="0%" x2="100%" y2="100%"><stop offset="17.999999999999996%" stop-color="#ff9759" stop-opacity="1"></stop><stop offset="82%" stop-color="#fc8137" stop-opacity="1"></stop></linearGradient></defs><defs><linearGradient id="grad1_3" x1="37.5%" y1="0%" x2="100%" y2="100%"><stop offset="17.999999999999996%" stop-color="#ff9759" stop-opacity="1"></stop><stop offset="82%" stop-color="#ffac79" stop-opacity="1"></stop></linearGradient></defs><defs><linearGradient id="grad1_4" x1="37.5%" y1="0%" x2="100%" y2="100%"><stop offset="17.999999999999996%" stop-color="#ffc09a" stop-opacity="1"></stop><stop offset="82%" stop-color="#ffac79" stop-opacity="1"></stop></linearGradient></defs><defs><linearGradient id="grad1_5" x1="37.5%" y1="0%" x2="100%" y2="100%"><stop offset="17.999999999999996%" stop-color="#ffc09a" stop-opacity="1"></stop><stop offset="82%" stop-color="#ffd5bb" stop-opacity="1"></stop></linearGradient></defs><defs><linearGradient id="grad1_6" x1="37.5%" y1="0%" x2="100%" y2="100%"><stop offset="17.999999999999996%" stop-color="#ffeadd" stop-opacity="1"></stop><stop offset="82%" stop-color="#ffd5bb" stop-opacity="1"></stop></linearGradient></defs><defs><linearGradient id="grad1_7" x1="37.5%" y1="0%" x2="100%" y2="100%"><stop offset="17.999999999999996%" stop-color="#ffeadd" stop-opacity="1"></stop><stop offset="82%" stop-color="#ffffff" stop-opacity="1"></stop></linearGradient></defs><defs><linearGradient id="grad2_0" x1="0%" y1="0%" x2="62.5%" y2="100%"><stop offset="17.999999999999996%" stop-color="#f56b06" stop-opacity="1"></stop><stop offset="82%" stop-color="#f56b06" stop-opacity="1"></stop></linearGradient></defs><defs><linearGradient id="grad2_1" x1="0%" y1="0%" x2="62.5%" y2="100%"><stop offset="17.999999999999996%" stop-color="#fc8137" stop-opacity="1"></stop><stop offset="82%" stop-color="#f56b06" stop-opacity="1"></stop></linearGradient></defs><defs><linearGradient id="grad2_2" x1="0%" y1="0%" x2="62.5%" y2="100%"><stop offset="17.999999999999996%" stop-color="#fc8137" stop-opacity="1"></stop><stop offset="82%" stop-color="#ff9759" stop-opacity="1"></stop></linearGradient></defs><defs><linearGradient id="grad2_3" x1="0%" y1="0%" x2="62.5%" y2="100%"><stop offset="17.999999999999996%" stop-color="#ffac79" stop-opacity="1"></stop><stop offset="82%" stop-color="#ff9759" stop-opacity="1"></stop></linearGradient></defs><defs><linearGradient id="grad2_4" x1="0%" y1="0%" x2="62.5%" y2="100%"><stop offset="17.999999999999996%" stop-color="#ffac79" stop-opacity="1"></stop><stop offset="82%" stop-color="#ffc09a" stop-opacity="1"></stop></linearGradient></defs><defs><linearGradient id="grad2_5" x1="0%" y1="0%" x2="62.5%" y2="100%"><stop offset="17.999999999999996%" stop-color="#ffd5bb" stop-opacity="1"></stop><stop offset="82%" stop-color="#ffc09a" stop-opacity="1"></stop></linearGradient></defs><defs><linearGradient id="grad2_6" x1="0%" y1="0%" x2="62.5%" y2="100%"><stop offset="17.999999999999996%" stop-color="#ffd5bb" stop-opacity="1"></stop><stop offset="82%" stop-color="#ffeadd" stop-opacity="1"></stop></linearGradient></defs><defs><linearGradient id="grad2_7" x1="0%" y1="0%" x2="62.5%" y2="100%"><stop offset="17.999999999999996%" stop-color="#ffffff" stop-opacity="1"></stop><stop offset="82%" stop-color="#ffeadd" stop-opacity="1"></stop></linearGradient></defs><g transform="translate(1440, 0)"><path d="M0 551.9C-93.1 532.4 -186.1 512.9 -271 469.4C-355.9 425.8 -432.5 358.2 -477.9 275.9C-523.4 193.7 -537.6 96.8 -551.9 0L0 0Z" fill="#fff5ee"></path><path d="M0 482.9C-81.4 465.9 -162.9 448.8 -237.1 410.7C-311.4 372.6 -378.4 313.4 -418.2 241.5C-458 169.5 -470.4 84.7 -482.9 0L0 0Z" fill="#ffe0cc"></path><path d="M0 413.9C-69.8 399.3 -139.6 384.7 -203.2 352C-266.9 319.4 -324.4 268.6 -358.5 207C-392.5 145.3 -403.2 72.6 -413.9 0L0 0Z" fill="#ffcbaa"></path><path d="M0 344.9C-58.2 332.8 -116.3 320.6 -169.4 293.4C-222.4 266.1 -270.3 223.9 -298.7 172.5C-327.1 121.1 -336 60.5 -344.9 0L0 0Z" fill="#ffb689"></path><path d="M0 275.9C-46.5 266.2 -93.1 256.5 -135.5 234.7C-177.9 212.9 -216.3 179.1 -239 138C-261.7 96.8 -268.8 48.4 -275.9 0L0 0Z" fill="#ffa169"></path><path d="M0 207C-34.9 199.7 -69.8 192.4 -101.6 176C-133.4 159.7 -162.2 134.3 -179.2 103.5C-196.3 72.6 -201.6 36.3 -207 0L0 0Z" fill="#ff8c48"></path><path d="M0 138C-23.3 133.1 -46.5 128.2 -67.7 117.3C-89 106.5 -108.1 89.5 -119.5 69C-130.8 48.4 -134.4 24.2 -138 0L0 0Z" fill="#f97623"></path><path d="M0 69C-11.6 66.6 -23.3 64.1 -33.9 58.7C-44.5 53.2 -54.1 44.8 -59.7 34.5C-65.4 24.2 -67.2 12.1 -69 0L0 0Z" fill="#f56b06"></path></g><g transform="translate(0, 900)"><path d="M0 -551.9C85.6 -519.5 171.2 -487.1 257 -445.1C342.8 -403.2 428.8 -351.7 477.9 -275.9C527.1 -200.2 539.5 -100.1 551.9 0L0 0Z" fill="#fff5ee"></path><path d="M0 -482.9C74.9 -454.5 149.8 -426.2 224.9 -389.5C299.9 -352.8 375.2 -307.8 418.2 -241.5C461.2 -175.1 472.1 -87.6 482.9 0L0 0Z" fill="#ffe0cc"></path><path d="M0 -413.9C64.2 -389.6 128.4 -365.3 192.7 -333.9C257.1 -302.4 321.6 -263.8 358.5 -207C395.3 -150.1 404.6 -75.1 413.9 0L0 0Z" fill="#ffcbaa"></path><path d="M0 -344.9C53.5 -324.7 107 -304.4 160.6 -278.2C214.2 -252 268 -219.8 298.7 -172.5C329.5 -125.1 337.2 -62.6 344.9 0L0 0Z" fill="#ffb689"></path><path d="M0 -275.9C42.8 -259.7 85.6 -243.5 128.5 -222.6C171.4 -201.6 214.4 -175.9 239 -138C263.6 -100.1 269.8 -50 275.9 0L0 0Z" fill="#ffa169"></path><path d="M0 -207C32.1 -194.8 64.2 -182.7 96.4 -166.9C128.5 -151.2 160.8 -131.9 179.2 -103.5C197.7 -75.1 202.3 -37.5 207 0L0 0Z" fill="#ff8c48"></path><path d="M0 -138C21.4 -129.9 42.8 -121.8 64.2 -111.3C85.7 -100.8 107.2 -87.9 119.5 -69C131.8 -50 134.9 -25 138 0L0 0Z" fill="#f97623"></path><path d="M0 -69C10.7 -64.9 21.4 -60.9 32.1 -55.6C42.8 -50.4 53.6 -44 59.7 -34.5C65.9 -25 67.4 -12.5 69 0L0 0Z" fill="#f56b06"></path></g></svg>