<svg id="visual" viewBox="0 0 960 540" width="960" height="540" xmlns="http://www.w3.org/2000/svg" xmlns:xlink="http://www.w3.org/1999/xlink" version="1.1"><rect x="0" y="0" width="960" height="540" fill="#ffffff"></rect><path d="M0 345L17.8 345.3C35.7 345.7 71.3 346.3 106.8 346.3C142.3 346.3 177.7 345.7 213.2 341.5C248.7 337.3 284.3 329.7 320 325.7C355.7 321.7 391.3 321.3 426.8 323.2C462.3 325 497.7 329 533.2 333.3C568.7 337.7 604.3 342.3 640 340.7C675.7 339 711.3 331 746.8 327.5C782.3 324 817.7 325 853.2 329.2C888.7 333.3 924.3 340.7 942.2 344.3L960 348L960 541L942.2 541C924.3 541 888.7 541 853.2 541C817.7 541 782.3 541 746.8 541C711.3 541 675.7 541 640 541C604.3 541 568.7 541 533.2 541C497.7 541 462.3 541 426.8 541C391.3 541 355.7 541 320 541C284.3 541 248.7 541 213.2 541C177.7 541 142.3 541 106.8 541C71.3 541 35.7 541 17.8 541L0 541Z" fill="#69abfa"></path><path d="M0 364L17.8 368C35.7 372 71.3 380 106.8 379.8C142.3 379.7 177.7 371.3 213.2 369.2C248.7 367 284.3 371 320 373.3C355.7 375.7 391.3 376.3 426.8 374.3C462.3 372.3 497.7 367.7 533.2 368.5C568.7 369.3 604.3 375.7 640 377C675.7 378.3 711.3 374.7 746.8 371.7C782.3 368.7 817.7 366.3 853.2 367C888.7 367.7 924.3 371.3 942.2 373.2L960 375L960 541L942.2 541C924.3 541 888.7 541 853.2 541C817.7 541 782.3 541 746.8 541C711.3 541 675.7 541 640 541C604.3 541 568.7 541 533.2 541C497.7 541 462.3 541 426.8 541C391.3 541 355.7 541 320 541C284.3 541 248.7 541 213.2 541C177.7 541 142.3 541 106.8 541C71.3 541 35.7 541 17.8 541L0 541Z" fill="#428ef4"></path><path d="M0 411L17.8 410.8C35.7 410.7 71.3 410.3 106.8 412.7C142.3 415 177.7 420 213.2 423C248.7 426 284.3 427 320 427C355.7 427 391.3 426 426.8 421.3C462.3 416.7 497.7 408.3 533.2 408.7C568.7 409 604.3 418 640 420.3C675.7 422.7 711.3 418.3 746.8 413.5C782.3 408.7 817.7 403.3 853.2 404.7C888.7 406 924.3 414 942.2 418L960 422L960 541L942.2 541C924.3 541 888.7 541 853.2 541C817.7 541 782.3 541 746.8 541C711.3 541 675.7 541 640 541C604.3 541 568.7 541 533.2 541C497.7 541 462.3 541 426.8 541C391.3 541 355.7 541 320 541C284.3 541 248.7 541 213.2 541C177.7 541 142.3 541 106.8 541C71.3 541 35.7 541 17.8 541L0 541Z" fill="#206fea"></path><path d="M0 446L17.8 448C35.7 450 71.3 454 106.8 457.2C142.3 460.3 177.7 462.7 213.2 463.5C248.7 464.3 284.3 463.7 320 462C355.7 460.3 391.3 457.7 426.8 456.3C462.3 455 497.7 455 533.2 456.8C568.7 458.7 604.3 462.3 640 463.2C675.7 464 711.3 462 746.8 458.2C782.3 454.3 817.7 448.7 853.2 445.5C888.7 442.3 924.3 441.7 942.2 441.3L960 441L960 541L942.2 541C924.3 541 888.7 541 853.2 541C817.7 541 782.3 541 746.8 541C711.3 541 675.7 541 640 541C604.3 541 568.7 541 533.2 541C497.7 541 462.3 541 426.8 541C391.3 541 355.7 541 320 541C284.3 541 248.7 541 213.2 541C177.7 541 142.3 541 106.8 541C71.3 541 35.7 541 17.8 541L0 541Z" fill="#154edb"></path><path d="M0 488L17.8 489C35.7 490 71.3 492 106.8 493.2C142.3 494.3 177.7 494.7 213.2 494.2C248.7 493.7 284.3 492.3 320 494C355.7 495.7 391.3 500.3 426.8 499.8C462.3 499.3 497.7 493.7 533.2 490C568.7 486.3 604.3 484.7 640 484.2C675.7 483.7 711.3 484.3 746.8 488C782.3 491.7 817.7 498.3 853.2 498.2C888.7 498 924.3 491 942.2 487.5L960 484L960 541L942.2 541C924.3 541 888.7 541 853.2 541C817.7 541 782.3 541 746.8 541C711.3 541 675.7 541 640 541C604.3 541 568.7 541 533.2 541C497.7 541 462.3 541 426.8 541C391.3 541 355.7 541 320 541C284.3 541 248.7 541 213.2 541C177.7 541 142.3 541 106.8 541C71.3 541 35.7 541 17.8 541L0 541Z" fill="#2924c7"></path></svg>